<svg width="1em" height="1em" viewBox="0 0 45 45" fill="none" xmlns="http://www.w3.org/2000/svg" class="mqXQtkTCt8p1BZwRNFrt">
<path d="M7.206 19.72a17.27 17.27 0 0 0-.587 1.766 18.306 18.306 0 0 0 .097 10.02A18.125 18.125 0 0 0 17.39 43.17a18.176 18.176 0 0 0 19.378-3.893 17.938 17.938 0 0 0 3.781-5.363 19.536 19.536 0 0 1-10.125 5.66c-.164.082-.332.156-.5.23a14.671 14.671 0 0 1-16.331-3.203l-.102-.107a14.59 14.59 0 0 1-3.999-8.564 14.954 14.954 0 0 1-.087-1.587 14.614 14.614 0 0 1 3.756-9.841 14.608 14.608 0 0 1 10.724-4.86h.349a14.594 14.594 0 0 1 8.849 3.077 12.81 12.81 0 0 0-.586-1.703 13.084 13.084 0 0 0-2.416-3.785l-.058-.044a17.585 17.585 0 0 0-2.618-.689 18.31 18.31 0 0 0-6.953.064 17.818 17.818 0 0 0-4.556 1.582 18.038 18.038 0 0 0-2.818 1.772l-.079.06c-.558.436-1.091.903-1.597 1.399a18.047 18.047 0 0 0-2.915 3.713c-.46.778-.86 1.591-1.196 2.43l-.01.2h-.075ZM18.152 5.952a17.866 17.866 0 0 0-3.257.297 17.324 17.324 0 0 0-1.923.462 17.58 17.58 0 0 0-1.698.594 17.883 17.883 0 0 0-8.777 7.6c-.255.433-.498.889-.718 1.354a18.127 18.127 0 0 0 8.518 24.179l.251.12a19.553 19.553 0 0 1-5.67-10.146 5.869 5.869 0 0 1-.238-.507 14.646 14.646 0 0 1 .242-12.158 14.491 14.491 0 0 1 3.077-4.263 14.005 14.005 0 0 1 1.595-1.327 14.597 14.597 0 0 1 2.764-1.554 19.056 19.056 0 0 1 7.75-3.517 19.498 19.498 0 0 1 3.17-.392l-.24-.07a17.825 17.825 0 0 0-4.846-.672Zm3.08 31.809.24.065c2.637.728 5.405.854 8.098.369l.074-.014a16.863 16.863 0 0 0 1.862-.448c.519-.154 1.035-.33 1.554-.538l.177.24-.108-.269a17.963 17.963 0 0 0 5.875-3.848 18.203 18.203 0 0 0 2.922-3.72 17.93 17.93 0 0 0 1.211-2.472 18.14 18.14 0 0 0-3.864-19.442 17.944 17.944 0 0 0-5.341-3.77A19.588 19.588 0 0 1 38.89 11.6c.285.812.52 1.641.7 2.483.064.12.149.306.229.491a14.67 14.67 0 0 1 .986 3.394c.13.795.196 1.599.196 2.404A14.64 14.64 0 0 1 36.6 30.867l-.104.098a14.555 14.555 0 0 1-4.373 2.903 19.337 19.337 0 0 1-5.236 2.793 19.95 19.95 0 0 1-2.496.702c-1.04.218-2.097.352-3.158.4v-.001Zm-6.835-2.512a17.57 17.57 0 0 0 2.631.702c2.313.438 4.69.416 6.993-.065a18.71 18.71 0 0 0 3.17-.964c.463-.187.914-.392 1.343-.61a17.975 17.975 0 0 0 8.177-8.352c.17-.358.324-.71.47-1.069l.02-.056A17.946 17.946 0 0 0 38.2 14.9v-.008a6.203 6.203 0 0 0-.076-.387c-.1-.498-.228-1.01-.382-1.525a18.161 18.161 0 0 0-.581-1.66 17.912 17.912 0 0 0-7.558-8.791 17.726 17.726 0 0 0-1.406-.75 18.13 18.13 0 0 0-24.184 8.519c-.037.078-.074.155-.11.239a19.61 19.61 0 0 1 7.695-4.969 20.797 20.797 0 0 1 2.463-.696c.133-.073.333-.163.536-.248a15.078 15.078 0 0 1 3.4-.989c3.647-.59 7.381.21 10.464 2.244.604.394 1.177.834 1.714 1.316.267.239.527.487.777.745a14.612 14.612 0 0 1 3.259 5.31 14.626 14.626 0 0 1 .754 3.298 14.524 14.524 0 0 1-1.36 7.926 14.853 14.853 0 0 1-2.309 3.468 14.751 14.751 0 0 1-10.756 4.883 14.32 14.32 0 0 1-2.169-.135 14.927 14.927 0 0 1-7.003-2.94 13.075 13.075 0 0 0 3.027 5.502l.002-.002Zm-3.434-7.892a13.094 13.094 0 0 0 3.707 2.645c.308.148.62.283.935.406a14.619 14.619 0 0 1-3.896-8.598 13.238 13.238 0 0 0-.746 5.55v-.003Zm17.876-13.32a14.77 14.77 0 0 1 3.904 8.575c.642-1.758.899-3.634.754-5.5v-.006a13.177 13.177 0 0 0-4.658-3.069Z" fill="url(#lace-logo-mark_component_svg__a)"></path>
<defs><radialGradient id="lace-logo-mark_component_svg__a" cx="0" cy="0" r="1" gradientUnits="userSpaceOnUse" gradientTransform="translate(22.219 22.222) scale(22.2239)"><stop stop-color="#FDC300"></stop><stop offset="0.11" stop-color="#FDC205"></stop><stop offset="0.25" stop-color="#FDBF13"></stop><stop offset="0.39" stop-color="#FDB92B"></stop><stop offset="0.54" stop-color="#FEB24C"></stop><stop offset="0.7" stop-color="#FEA977"></stop><stop offset="0.86" stop-color="#FF9DAA"></stop><stop offset="1" stop-color="#FF92DE"></stop></radialGradient></defs>
</svg>